<svg width="45" height="44" viewBox="0 0 45 44" fill="none" xmlns="http://www.w3.org/2000/svg">
<rect width="45" height="44" rx="7" fill="#DCEFFF"/>
<path fill-rule="evenodd" clip-rule="evenodd" d="M17.5926 10.3062C17.789 10.1101 18.0555 10 18.3333 10H26.7143C28.4501 10 29.8571 11.4042 29.8571 13.1364V17.3182C29.8571 17.8956 29.3881 18.3636 28.8095 18.3636C28.2309 18.3636 27.7619 17.8956 27.7619 17.3182V13.1364C27.7619 12.559 27.2929 12.0909 26.7143 12.0909H19.381V17.3182C19.381 17.8956 18.9119 18.3636 18.3333 18.3636H13.0952V29.8636C13.0952 30.441 13.5643 30.9091 14.1429 30.9091H17.2857C17.8643 30.9091 18.3333 31.3771 18.3333 31.9545C18.3333 32.5319 17.8643 33 17.2857 33H14.1429C12.4071 33 11 31.5958 11 29.8636V17.3182C11 17.0409 11.1104 16.775 11.3068 16.5789L17.5926 10.3062ZM14.5768 16.2727H17.2857V13.5694L14.5768 16.2727ZM26.7143 28.8182C23.8806 28.8182 22.5238 30.5702 22.5238 31.9545C22.5238 32.5319 22.0548 33 21.4762 33C20.8976 33 20.4286 32.5319 20.4286 31.9545C20.4286 30.0458 21.6259 28.3082 23.5664 27.3968C22.9174 26.6604 22.5238 25.6943 22.5238 24.6364C22.5238 22.3268 24.4 20.4545 26.7143 20.4545C29.0286 20.4545 30.9048 22.3268 30.9048 24.6364C30.9048 25.6943 30.5112 26.6604 29.8622 27.3968C31.8027 28.3082 33 30.0458 33 31.9545C33 32.5319 32.531 33 31.9524 33C31.3738 33 30.9048 32.5319 30.9048 31.9545C30.9048 30.5702 29.548 28.8182 26.7143 28.8182ZM26.7143 26.7273C27.8715 26.7273 28.8095 25.7912 28.8095 24.6364C28.8095 23.4816 27.8715 22.5455 26.7143 22.5455C25.5571 22.5455 24.619 23.4816 24.619 24.6364C24.619 25.7912 25.5571 26.7273 26.7143 26.7273Z" fill="#1467B0"/>
</svg>
