<svg width="45" height="44" viewBox="0 0 45 44" fill="none" xmlns="http://www.w3.org/2000/svg">
<rect width="45" height="44" rx="7" fill="#DCEFFF"/>
<path fill-rule="evenodd" clip-rule="evenodd" d="M22 19.5C22 19.2239 22.398 19 22.8889 19H29.1111C29.602 19 30 19.2239 30 19.5C30 19.7761 29.602 20 29.1111 20H22.8889C22.398 20 22 19.7761 22 19.5Z" fill="#1467B0"/>
<path fill-rule="evenodd" clip-rule="evenodd" d="M20.7071 16.2929C21.0976 16.6834 21.0976 17.3166 20.7071 17.7071L17.7071 20.7071C17.3166 21.0976 16.6834 21.0976 16.2929 20.7071L15.2929 19.7071C14.9024 19.3166 14.9024 18.6834 15.2929 18.2929C15.6834 17.9024 16.3166 17.9024 16.7071 18.2929L17 18.5858L19.2929 16.2929C19.6834 15.9024 20.3166 15.9024 20.7071 16.2929Z" fill="#1467B0"/>
<path fill-rule="evenodd" clip-rule="evenodd" d="M22 26.5C22 26.2239 22.398 26 22.8889 26H29.1111C29.602 26 30 26.2239 30 26.5C30 26.7761 29.602 27 29.1111 27H22.8889C22.398 27 22 26.7761 22 26.5Z" fill="#1467B0"/>
<path fill-rule="evenodd" clip-rule="evenodd" d="M20.7071 24.2929C21.0976 24.6834 21.0976 25.3166 20.7071 25.7071L17.7071 28.7071C17.3166 29.0976 16.6834 29.0976 16.2929 28.7071L15.2929 27.7071C14.9024 27.3166 14.9024 26.6834 15.2929 26.2929C15.6834 25.9024 16.3166 25.9024 16.7071 26.2929L17 26.5858L19.2929 24.2929C19.6834 23.9024 20.3166 23.9024 20.7071 24.2929Z" fill="#1467B0"/>
<path fill-rule="evenodd" clip-rule="evenodd" d="M12.9734 12.9734C14.4009 11.5458 16.5371 11 19.2907 11H25.7093C28.4629 11 30.5991 11.5458 32.0266 12.9734C33.4542 14.4009 34 16.5371 34 19.2907V25.7093C34 28.4629 33.4542 30.5991 32.0266 32.0266C30.5991 33.4542 28.4629 34 25.7093 34H19.2907C16.5371 34 14.4009 33.4542 12.9734 32.0266C11.5458 30.5991 11 28.4629 11 25.7093V19.2907C11 16.5371 11.5458 14.4009 12.9734 12.9734ZM14.108 14.108C13.1286 15.0874 12.6047 16.6954 12.6047 19.2907V25.7093C12.6047 28.3046 13.1286 29.9126 14.108 30.892C15.0874 31.8714 16.6954 32.3953 19.2907 32.3953H25.7093C28.3046 32.3953 29.9126 31.8714 30.892 30.892C31.8714 29.9126 32.3953 28.3046 32.3953 25.7093V19.2907C32.3953 16.6954 31.8714 15.0874 30.892 14.108C29.9126 13.1286 28.3046 12.6047 25.7093 12.6047H19.2907C16.6954 12.6047 15.0874 13.1286 14.108 14.108Z" fill="#1467B0"/>
<circle cx="31" cy="29" r="7" fill="#1467B0"/>
<path fill-rule="evenodd" clip-rule="evenodd" d="M29.6667 28C29.6667 27.2636 30.2636 26.6667 31 26.6667C31.7364 26.6667 32.3333 27.2636 32.3333 28C32.3333 28.7364 31.7364 29.3333 31 29.3333C30.2636 29.3333 29.6667 28.7364 29.6667 28ZM32.2748 29.5412C32.7178 29.1743 33 28.6201 33 28C33 26.8954 32.1046 26 31 26C29.8954 26 29 26.8954 29 28C29 28.6201 29.2822 29.1743 29.7252 29.5412C28.6614 29.9153 28 30.7491 28 31.6667C28 31.8508 28.1492 32 28.3333 32C28.5174 32 28.6667 31.8508 28.6667 31.6667C28.6667 30.9102 29.4518 30 31 30C32.5482 30 33.3333 30.9102 33.3333 31.6667C33.3333 31.8508 33.4826 32 33.6667 32C33.8508 32 34 31.8508 34 31.6667C34 30.7491 33.3386 29.9153 32.2748 29.5412Z" fill="white"/>
</svg>
